<svg width="758" height="110" viewBox="0 0 758 110" fill="none" xmlns="http://www.w3.org/2000/svg">
<g filter="url(#filter0_d_368_20212)">
<path d="M10 51C10 28.9086 27.9086 11 50 11H698C720.091 11 738 28.9086 738 51C738 73.0914 720.091 91 698 91H50C27.9086 91 10 73.0914 10 51Z" fill="white"/>
<path d="M45.4998 47H50.4998V42M50.2091 55.3569C49.2772 56.7918 47.9099 57.8902 46.3079 58.4907C44.7059 59.0913 42.9534 59.1624 41.3079 58.6937C39.6625 58.225 38.2109 57.2413 37.1658 55.8867C36.1207 54.5321 35.5376 52.878 35.5018 51.1675C35.4659 49.4569 35.979 47.78 36.9665 46.3828C37.9539 44.9856 39.3633 43.942 40.9877 43.4048C42.6121 42.8676 44.3661 42.865 45.9919 43.398C47.6177 43.9309 49.0298 44.9709 50.0209 46.3656" stroke="#1E1E1E" stroke-width="2" stroke-linecap="round" stroke-linejoin="round"/>
<path d="M45.4998 47H50.4998V42M50.2091 55.3569C49.2772 56.7918 47.9099 57.8902 46.3079 58.4907C44.7059 59.0913 42.9534 59.1624 41.3079 58.6937C39.6625 58.225 38.2109 57.2413 37.1658 55.8867C36.1207 54.5321 35.5376 52.878 35.5018 51.1675C35.4659 49.4569 35.979 47.78 36.9665 46.3828C37.9539 44.9856 39.3633 43.942 40.9877 43.4048C42.6121 42.8676 44.3661 42.865 45.9919 43.398C47.6177 43.9309 49.0298 44.9709 50.0209 46.3656" stroke="black" stroke-opacity="0.2" stroke-width="2" stroke-linecap="round" stroke-linejoin="round"/>
<path d="M108 50L102 56V59H111L114 56" stroke="black" stroke-width="2" stroke-linecap="round" stroke-linejoin="round"/>
<path d="M121 51L116.4 55.6C116.026 55.9665 115.523 56.1717 115 56.1717C114.476 56.1717 113.974 55.9665 113.6 55.6L108.4 50.4C108.033 50.0261 107.828 49.5235 107.828 49C107.828 48.4765 108.033 47.9739 108.4 47.6L113 43" stroke="black" stroke-width="2" stroke-linecap="round" stroke-linejoin="round"/>
<path d="M137 49L132.5 53.5L128 49" stroke="#1E1E1E" stroke-width="1.5" stroke-linecap="round" stroke-linejoin="round"/>
<path d="M137 49L132.5 53.5L128 49" stroke="black" stroke-opacity="0.2" stroke-width="1.5" stroke-linecap="round" stroke-linejoin="round"/>
<path d="M195.639 42.64L194.359 41.36C194.246 41.2464 194.112 41.1561 193.965 41.0945C193.817 41.0329 193.659 41.0012 193.499 41.0012C193.339 41.0012 193.181 41.0329 193.033 41.0945C192.885 41.1561 192.751 41.2464 192.639 41.36L176.359 57.64C176.245 57.7526 176.155 57.8865 176.093 58.0341C176.032 58.1817 176 58.3401 176 58.5C176 58.66 176.032 58.8184 176.093 58.966C176.155 59.1136 176.245 59.2475 176.359 59.36L177.639 60.64C177.751 60.755 177.884 60.8463 178.032 60.9087C178.18 60.971 178.338 61.0031 178.499 61.0031C178.659 61.0031 178.818 60.971 178.966 60.9087C179.113 60.8463 179.247 60.755 179.359 60.64L195.639 44.36C195.754 44.2482 195.845 44.1145 195.907 43.9668C195.97 43.8191 196.002 43.6604 196.002 43.5C196.002 43.3397 195.97 43.181 195.907 43.0333C195.845 42.8856 195.754 42.7519 195.639 42.64Z" stroke="black" stroke-width="2" stroke-linecap="round" stroke-linejoin="round"/>
<path d="M188 46L191 49" stroke="black" stroke-width="2" stroke-linecap="round" stroke-linejoin="round"/>
<path d="M179 45V49" stroke="black" stroke-width="2" stroke-linecap="round" stroke-linejoin="round"/>
<path d="M193 53V57" stroke="black" stroke-width="2" stroke-linecap="round" stroke-linejoin="round"/>
<path d="M184 41V43" stroke="black" stroke-width="2" stroke-linecap="round" stroke-linejoin="round"/>
<path d="M181 47H177" stroke="black" stroke-width="2" stroke-linecap="round" stroke-linejoin="round"/>
<path d="M195 55H191" stroke="black" stroke-width="2" stroke-linecap="round" stroke-linejoin="round"/>
<path d="M185 42H183" stroke="black" stroke-width="2" stroke-linecap="round" stroke-linejoin="round"/>
<path d="M212 49L207.5 53.5L203 49" stroke="#1E1E1E" stroke-width="1.5" stroke-linecap="round" stroke-linejoin="round"/>
<path d="M212 49L207.5 53.5L203 49" stroke="black" stroke-opacity="0.2" stroke-width="1.5" stroke-linecap="round" stroke-linejoin="round"/>
<path d="M253 56.2459V49.1146C253 48.8284 253.297 48.6393 253.557 48.7606L258.737 51.1863C259.081 51.3471 259.3 51.692 259.3 52.0712V59.3674C259.3 59.6579 258.994 59.8469 258.734 59.717L253.54 57.1199C253.209 56.9544 253 56.616 253 56.2459Z" stroke="#1E1E1E" stroke-width="1.62"/>
<path d="M253 56.2459V49.1146C253 48.8284 253.297 48.6393 253.557 48.7606L258.737 51.1863C259.081 51.3471 259.3 51.692 259.3 52.0712V59.3674C259.3 59.6579 258.994 59.8469 258.734 59.717L253.54 57.1199C253.209 56.9544 253 56.616 253 56.2459Z" stroke="black" stroke-opacity="0.2" stroke-width="1.62"/>
<path d="M268.75 56.2459V48.9391C268.75 48.6469 268.441 48.458 268.181 48.5911L263.028 51.2295C262.704 51.3957 262.499 51.7288 262.497 52.0935L262.454 59.3632C262.452 59.6548 262.759 59.8455 263.019 59.7151L268.21 57.1199C268.541 56.9544 268.75 56.616 268.75 56.2459Z" stroke="#1E1E1E" stroke-width="1.62"/>
<path d="M268.75 56.2459V48.9391C268.75 48.6469 268.441 48.458 268.181 48.5911L263.028 51.2295C262.704 51.3957 262.499 51.7288 262.497 52.0935L262.454 59.3632C262.452 59.6548 262.759 59.8455 263.019 59.7151L268.21 57.1199C268.541 56.9544 268.75 56.616 268.75 56.2459Z" stroke="black" stroke-opacity="0.2" stroke-width="1.62"/>
<path d="M254.212 45.0658L260.368 42.1928C260.63 42.0706 260.933 42.0706 261.195 42.1928L267.351 45.0658C267.652 45.2062 267.652 45.6338 267.351 45.7742L261.195 48.6472C260.933 48.7694 260.63 48.7694 260.368 48.6472L254.212 45.7742C253.911 45.6338 253.911 45.2062 254.212 45.0658Z" stroke="#1E1E1E" stroke-width="1.62"/>
<path d="M254.212 45.0658L260.368 42.1928C260.63 42.0706 260.933 42.0706 261.195 42.1928L267.351 45.0658C267.652 45.2062 267.652 45.6338 267.351 45.7742L261.195 48.6472C260.933 48.7694 260.63 48.7694 260.368 48.6472L254.212 45.7742C253.911 45.6338 253.911 45.2062 254.212 45.0658Z" stroke="black" stroke-opacity="0.2" stroke-width="1.62"/>
<path d="M287 49L282.5 53.5L278 49" stroke="#1E1E1E" stroke-width="1.5" stroke-linecap="round" stroke-linejoin="round"/>
<path d="M287 49L282.5 53.5L278 49" stroke="black" stroke-opacity="0.2" stroke-width="1.5" stroke-linecap="round" stroke-linejoin="round"/>
<path d="M341.16 43.9883L333.16 41.5638C330.591 40.7853 328 42.7078 328 45.3919V54.3556C328 56.1357 329.176 57.7016 330.886 58.1974L338.886 60.5171C341.445 61.259 344 59.3394 344 56.6754V47.8164C344 46.0541 342.847 44.4995 341.16 43.9883Z" fill="#D8D8D8" fill-opacity="0.4" stroke="black" stroke-width="2" stroke-linecap="round" stroke-linejoin="round" stroke-dasharray="4 4"/>
<path d="M362 49L357.5 53.5L353 49" stroke="#1E1E1E" stroke-width="1.5" stroke-linecap="round" stroke-linejoin="round"/>
<path d="M362 49L357.5 53.5L353 49" stroke="black" stroke-opacity="0.2" stroke-width="1.5" stroke-linecap="round" stroke-linejoin="round"/>
<path fill-rule="evenodd" clip-rule="evenodd" d="M402.9 45H419.1C419.597 45 420 45.4356 420 45.973C420 46.057 420 46.4595 420 46.4595V56.1351C420 56.9891 419.636 57.7294 419.115 58.3208C418.599 58.9072 417.895 59.3911 417.093 59.7762C415.488 60.5477 413.333 61 411 61C408.635 61 406.464 60.4126 404.856 59.5067C404.053 59.0542 403.36 58.5047 402.856 57.8768C402.355 57.2508 402 56.491 402 55.6486V45.973C402 45.4356 402.403 45 402.9 45ZM403.8 46.9459V55.6486C403.8 55.881 403.899 56.2059 404.217 56.6023C404.533 56.9968 405.026 57.4077 405.688 57.7811C407.012 58.527 408.892 59.0541 411 59.0541C413.141 59.0541 415.036 58.6352 416.362 57.998C417.026 57.6789 417.508 57.3241 417.812 56.9793C418.111 56.6395 418.2 56.3559 418.2 56.1351V46.9459H403.8Z" fill="#1E1E1E"/>
<path fill-rule="evenodd" clip-rule="evenodd" d="M402.9 45H419.1C419.597 45 420 45.4356 420 45.973C420 46.057 420 46.4595 420 46.4595V56.1351C420 56.9891 419.636 57.7294 419.115 58.3208C418.599 58.9072 417.895 59.3911 417.093 59.7762C415.488 60.5477 413.333 61 411 61C408.635 61 406.464 60.4126 404.856 59.5067C404.053 59.0542 403.36 58.5047 402.856 57.8768C402.355 57.2508 402 56.491 402 55.6486V45.973C402 45.4356 402.403 45 402.9 45ZM403.8 46.9459V55.6486C403.8 55.881 403.899 56.2059 404.217 56.6023C404.533 56.9968 405.026 57.4077 405.688 57.7811C407.012 58.527 408.892 59.0541 411 59.0541C413.141 59.0541 415.036 58.6352 416.362 57.998C417.026 57.6789 417.508 57.3241 417.812 56.9793C418.111 56.6395 418.2 56.3559 418.2 56.1351V46.9459H403.8Z" fill="black" fill-opacity="0.2"/>
<path d="M411 42C413.348 42 415.424 42.5312 416.878 43.3389C418.366 44.1654 419 45.1474 419 46C419 46.8526 418.366 47.8346 416.878 48.6611C415.424 49.4688 413.348 50 411 50C408.652 50 406.576 49.4688 405.122 48.6611C403.634 47.8346 403 46.8526 403 46C403 45.1474 403.634 44.1654 405.122 43.3389C406.576 42.5312 408.652 42 411 42Z" fill="#C2C2C2"/>
<path d="M411 42C413.348 42 415.424 42.5312 416.878 43.3389C418.366 44.1654 419 45.1474 419 46C419 46.8526 418.366 47.8346 416.878 48.6611C415.424 49.4688 413.348 50 411 50C408.652 50 406.576 49.4688 405.122 48.6611C403.634 47.8346 403 46.8526 403 46C403 45.1474 403.634 44.1654 405.122 43.3389C406.576 42.5312 408.652 42 411 42Z" stroke="#1E1E1E" stroke-width="2"/>
<path d="M411 42C413.348 42 415.424 42.5312 416.878 43.3389C418.366 44.1654 419 45.1474 419 46C419 46.8526 418.366 47.8346 416.878 48.6611C415.424 49.4688 413.348 50 411 50C408.652 50 406.576 49.4688 405.122 48.6611C403.634 47.8346 403 46.8526 403 46C403 45.1474 403.634 44.1654 405.122 43.3389C406.576 42.5312 408.652 42 411 42Z" stroke="black" stroke-opacity="0.2" stroke-width="2"/>
<path d="M437 49L432.5 53.5L428 49" stroke="#1E1E1E" stroke-width="1.5" stroke-linecap="round" stroke-linejoin="round"/>
<path d="M437 49L432.5 53.5L428 49" stroke="black" stroke-opacity="0.2" stroke-width="1.5" stroke-linecap="round" stroke-linejoin="round"/>
<path d="M490.323 42.1536C490.098 42.0524 489.855 42 489.608 42C489.362 42 489.118 42.0524 488.893 42.1536L481.514 45.4759C481.361 45.5425 481.231 45.6517 481.14 45.7901C481.049 45.9285 481 46.0901 481 46.2553C481 46.4205 481.049 46.5821 481.14 46.7205C481.231 46.8589 481.361 46.9681 481.514 47.0347L488.902 50.3655C489.126 50.4666 489.37 50.5189 489.617 50.5188C489.863 50.5189 490.107 50.4666 490.331 50.3655L497.72 47.0433C497.873 46.9767 498.003 46.8676 498.094 46.7291C498.186 46.5906 498.234 46.4288 498.234 46.2634C498.234 46.098 498.186 45.9362 498.094 45.7977C498.003 45.6592 497.873 45.5501 497.72 45.4835L490.323 42.1536Z" stroke="#3054EF" stroke-width="2" stroke-linecap="round" stroke-linejoin="round"/>
<path d="M481 50.5186C481 50.6815 481.046 50.8411 481.135 50.9785C481.223 51.1159 481.35 51.2253 481.499 51.2937L488.905 54.6245C489.128 54.7244 489.37 54.7761 489.615 54.7761" stroke="#3054EF" stroke-width="2" stroke-linecap="round" stroke-linejoin="round"/>
<path d="M481 54.7778C481 54.9408 481.046 55.1004 481.135 55.2378C481.223 55.3752 481.35 55.4846 481.499 55.553L488.905 58.8838C489.128 58.9837 489.37 59.0355 489.615 59.0355C489.86 59.0355 490.103 58.9837 490.326 58.8838L492.148 58.0643" stroke="#3054EF" stroke-width="2" stroke-linecap="round" stroke-linejoin="round"/>
<path d="M493.781 53.8396C493.781 53.8396 496.078 49.2964 500.096 49.2964C504.115 49.2964 506.411 53.8396 506.411 53.8396C506.411 53.8396 504.115 58.3828 500.096 58.3828C496.078 58.3828 493.781 53.8396 493.781 53.8396Z" stroke="#3054EF" stroke-width="1.6" stroke-linecap="round" stroke-linejoin="round"/>
<path d="M500.096 55.5433C501.047 55.5433 501.818 54.7805 501.818 53.8396C501.818 52.8987 501.047 52.1359 500.096 52.1359C499.145 52.1359 498.374 52.8987 498.374 53.8396C498.374 54.7805 499.145 55.5433 500.096 55.5433Z" stroke="#3054EF" stroke-width="1.6" stroke-linecap="round" stroke-linejoin="round"/>
<path d="M558.5 54.9625V45.3001C558.5 44.8294 558.741 44.396 559.13 44.1689L562.564 42.1604C562.938 41.9419 563.392 41.9469 563.762 42.1737L567.239 44.3084C567.608 44.535 567.838 44.9501 567.846 45.4026L567.922 49.7682C567.93 50.2366 568.176 50.6637 568.566 50.8841L571.856 52.7456C572.252 52.9701 572.5 53.4083 572.5 53.8853V57.6914C572.5 58.162 572.259 58.5954 571.87 58.8226L568.421 60.8396C568.055 61.0535 567.612 61.0535 567.246 60.8396L559.13 56.0937C558.741 55.8666 558.5 55.4332 558.5 54.9625Z" fill="white"/>
<path d="M557.5 55.0835V45.0833C557.5 44.3528 557.881 43.6801 558.493 43.3275L562.104 41.2492C562.694 40.91 563.411 40.9174 563.993 41.2695L567.649 43.4789C568.231 43.8308 568.594 44.475 568.606 45.1773L568.686 49.6954C568.691 49.9378 568.82 50.1589 569.025 50.273L572.484 52.1992C573.109 52.5477 573.5 53.2282 573.5 53.9687V57.9078C573.5 58.6383 573.119 59.311 572.507 59.6636L568.88 61.751C568.303 62.083 567.604 62.083 567.027 61.751L558.493 56.8393C557.881 56.4867 557.5 55.814 557.5 55.0835ZM558.78 55.0835C558.78 55.327 558.907 55.5515 559.111 55.669L567.644 60.5801C567.837 60.6908 568.07 60.6908 568.262 60.5801L571.889 58.4927C572.093 58.3752 572.22 58.1513 572.22 57.9078V53.9687C572.22 53.7219 572.09 53.4948 571.881 53.3786L568.422 51.4525C567.808 51.1102 567.419 50.4473 567.406 49.7202L567.327 45.2021C567.323 44.9679 567.202 44.7528 567.007 44.6355L563.352 42.4267C563.158 42.3094 562.919 42.3065 562.722 42.4195L559.111 44.4984C558.907 44.6159 558.78 44.8399 558.78 45.0833V55.0835Z" fill="#2C2C2C"/>
<path d="M568 45L562.695 48L562 46.8055L567 44L568 45Z" fill="#2C2C2C"/>
<path d="M562.175 52.0911V47.7472L557.5 45.0847L558.186 44L562.861 46.6624C563.262 46.8911 563.508 47.3029 563.508 47.7472V52.0911L567.853 54.5657C568.261 54.7983 568.508 55.2201 568.5 55.6721L568.403 61L567.071 60.9778L567.167 55.6504L562.822 53.1758C562.421 52.9471 562.175 52.5354 562.175 52.0911Z" fill="#2C2C2C"/>
<path d="M572.5 54.353L568.067 57L567.5 55.647L571.933 53L572.5 54.353Z" fill="#2C2C2C"/>
<path d="M568.5 50.2108L563.245 53L562.5 51.7892L567.755 49L568.5 50.2108Z" fill="#2C2C2C"/>
<rect x="614" y="15" width="120" height="72" rx="36" fill="#E6E6E6"/>
<rect width="62" height="52" transform="translate(644 22)" fill="#E6E6E6"/>
<path d="M654.881 47.5433L653.544 46.8621L654.881 47.5433ZM656.284 46.1404L656.965 47.4774L656.965 47.4774L656.284 46.1404ZM656.284 64.707L655.603 66.044H655.603L656.284 64.707ZM654.881 63.3025L653.544 63.9837H653.544L654.881 63.3025ZM683.081 63.3025L681.744 62.6212V62.6212L683.081 63.3025ZM681.676 64.707L682.358 66.044H682.358L681.676 64.707ZM683.081 47.5433L681.744 48.2246V48.2246L683.081 47.5433ZM681.676 46.1404L682.358 44.8034H682.358L681.676 46.1404ZM663.346 43.4278L664.767 43.9092L664.769 43.9023L663.346 43.4278ZM663.515 42.9478L662.13 42.3699V42.3699L663.515 42.9478ZM666.243 40.9825L666.354 42.479H666.354L666.243 40.9825ZM665.013 45.7904L665.013 44.2899H665.013L665.013 45.7904ZM664.608 45.781L664.775 44.2898H664.775L664.608 45.781ZM663.343 43.4369L661.922 42.9555L661.919 42.9624L663.343 43.4369ZM663.216 43.8491L664.683 44.1623L664.683 44.1623L663.216 43.8491ZM674.616 43.4276L673.192 43.9021L673.192 43.9021L674.616 43.4276ZM674.746 43.8492L673.278 44.1624V44.1624L674.746 43.8492ZM672.948 45.7904L672.949 44.2899H672.949L672.948 45.7904ZM673.355 45.781L673.522 47.2722V47.2722L673.355 45.781ZM674.447 42.9478L675.831 42.3699L675.831 42.3699L674.447 42.9478ZM671.719 40.9825L671.83 39.4861V39.4861L671.719 40.9825ZM683.432 35.4636C682.604 35.4636 681.932 36.1354 681.932 36.9641C681.932 37.7929 682.604 38.4647 683.432 38.4647V36.9641V35.4636ZM695.474 38.4647C696.303 38.4647 696.974 37.7929 696.974 36.9641C696.974 36.1354 696.303 35.4636 695.474 35.4636V36.9641V38.4647ZM687.954 42.9845C687.954 43.8132 688.626 44.4851 689.455 44.4851C690.283 44.4851 690.955 43.8132 690.955 42.9845H689.455H687.954ZM690.955 30.9431C690.955 30.1144 690.283 29.4426 689.455 29.4426C688.626 29.4426 687.954 30.1144 687.954 30.9431H689.455H690.955ZM668.981 60.2401V58.7396C667.15 58.7396 665.665 57.2549 665.665 55.4235H664.164H662.664C662.664 58.9124 665.492 61.7407 668.981 61.7407V60.2401ZM664.164 55.4235H665.665C665.665 53.5922 667.15 52.1075 668.981 52.1075V50.607V49.1064C665.492 49.1064 662.664 51.9347 662.664 55.4235H664.164ZM668.981 50.607V52.1075C670.812 52.1075 672.297 53.5922 672.297 55.4235H673.798H675.298C675.298 51.9347 672.47 49.1064 668.981 49.1064V50.607ZM673.798 55.4235H672.297C672.297 57.2549 670.812 58.7396 668.981 58.7396V60.2401V61.7407C672.47 61.7407 675.298 58.9124 675.298 55.4235H673.798ZM654.531 59.9193H656.032V50.9284H654.531H653.031V59.9193H654.531ZM659.669 45.7904V47.291H664.949V45.7904V44.2899H659.669V45.7904ZM664.949 45.7904V47.291H665.049V45.7904V44.2899H664.949V45.7904ZM665.049 45.7904V47.291H672.913V45.7904V44.2899H665.049V45.7904ZM672.913 45.7904V47.291H673.012V45.7904V44.2899H672.913V45.7904ZM673.012 45.7904V47.291H678.293V45.7904V44.2899H673.012V45.7904ZM654.531 50.9284H656.032C656.032 50.0045 656.033 49.4016 656.071 48.9412C656.107 48.4983 656.169 48.3211 656.218 48.2246L654.881 47.5433L653.544 46.8621C653.243 47.4524 653.131 48.0686 653.079 48.6969C653.03 49.3078 653.031 50.054 653.031 50.9284H654.531ZM659.669 45.7904V44.2899C658.795 44.2899 658.049 44.2887 657.438 44.3386C656.809 44.3899 656.193 44.5026 655.603 44.8034L656.284 46.1404L656.965 47.4774C657.062 47.4282 657.239 47.3659 657.682 47.3297C658.142 47.2921 658.745 47.291 659.669 47.291V45.7904ZM654.881 47.5433L656.218 48.2246C656.382 47.9027 656.644 47.6414 656.965 47.4774L656.284 46.1404L655.603 44.8034C654.716 45.2551 653.996 45.9755 653.544 46.8621L654.881 47.5433ZM659.664 65.0567V63.5561C658.742 63.5561 658.14 63.555 657.681 63.5174C657.238 63.4813 657.062 63.4191 656.965 63.37L656.284 64.707L655.603 66.044C656.193 66.3446 656.809 66.4572 657.436 66.5085C658.046 66.5584 658.791 66.5572 659.664 66.5572V65.0567ZM654.531 59.9193H653.031C653.031 60.7937 653.03 61.5395 653.079 62.15C653.131 62.7781 653.244 63.3936 653.544 63.9837L654.881 63.3025L656.218 62.6212C656.169 62.5244 656.107 62.3475 656.071 61.9054C656.033 61.4456 656.032 60.8433 656.032 59.9193H654.531ZM656.284 64.707L656.965 63.37C656.645 63.2069 656.383 62.9447 656.218 62.6212L654.881 63.3025L653.544 63.9837C653.995 64.8686 654.715 65.5915 655.603 66.044L656.284 64.707ZM683.431 59.924H681.93C681.93 60.8462 681.929 61.4475 681.891 61.9067C681.855 62.3482 681.793 62.5248 681.744 62.6212L683.081 63.3025L684.418 63.9837C684.718 63.3939 684.831 62.7787 684.882 62.1512C684.932 61.5414 684.931 60.7966 684.931 59.924H683.431ZM678.298 65.0567V66.5572C679.171 66.5572 679.915 66.5584 680.525 66.5085C681.153 66.4572 681.768 66.3445 682.358 66.044L681.676 64.707L680.995 63.37C680.899 63.4192 680.722 63.4813 680.281 63.5174C679.821 63.555 679.22 63.5561 678.298 63.5561V65.0567ZM683.081 63.3025L681.744 62.6212C681.58 62.9431 681.317 63.206 680.995 63.37L681.676 64.707L682.358 66.044C683.244 65.5923 683.966 64.8702 684.418 63.9837L683.081 63.3025ZM683.431 50.9231H684.931C684.931 50.0505 684.932 49.3054 684.882 48.6953C684.831 48.0677 684.719 47.452 684.418 46.8621L683.081 47.5433L681.744 48.2246C681.793 48.3208 681.855 48.4976 681.891 48.9397C681.929 49.3992 681.93 50.001 681.93 50.9231H683.431ZM678.293 45.7904V47.291C679.217 47.291 679.82 47.2921 680.279 47.3297C680.722 47.3659 680.898 47.4281 680.995 47.4774L681.676 46.1404L682.358 44.8034C681.768 44.5028 681.152 44.39 680.524 44.3386C679.913 44.2887 679.168 44.2899 678.293 44.2899V45.7904ZM683.081 47.5433L684.418 46.8621C683.965 45.9739 683.243 45.2543 682.358 44.8034L681.676 46.1404L680.995 47.4774C681.319 47.6422 681.581 47.9043 681.744 48.2246L683.081 47.5433ZM666.751 40.9739V42.4744H671.21V40.9739V39.4733H666.751V40.9739ZM663.346 43.4278L664.769 43.9023C664.86 43.632 664.881 43.5715 664.9 43.5257L663.515 42.9478L662.13 42.3699C662.058 42.5423 661.997 42.729 661.922 42.9532L663.346 43.4278ZM666.751 40.9739V39.4733C666.515 39.4733 666.319 39.4723 666.133 39.4861L666.243 40.9825L666.354 42.479C666.403 42.4754 666.467 42.4744 666.751 42.4744V40.9739ZM663.515 42.9478L664.9 43.5257C665.148 42.9317 665.71 42.5265 666.354 42.479L666.243 40.9825L666.133 39.4861C664.363 39.6165 662.814 40.7304 662.13 42.3699L663.515 42.9478ZM665.049 45.7904L665.049 44.2899L665.013 44.2899L665.013 45.7904L665.013 47.291L665.049 47.291L665.049 45.7904ZM665.013 45.7904L665.013 44.2899C664.99 44.2899 664.97 44.2899 664.95 44.2899L664.949 45.7904L664.949 47.291C664.969 47.291 664.991 47.291 665.013 47.291L665.013 45.7904ZM664.949 45.7904L664.95 44.2899C664.863 44.2898 664.813 44.2895 664.779 44.2887C664.745 44.2879 664.751 44.2871 664.775 44.2898L664.608 45.781L664.441 47.2722C664.618 47.292 664.807 47.2909 664.949 47.291L664.949 45.7904ZM663.346 43.4278L661.925 42.9463L661.922 42.9555L663.343 43.4369L664.764 43.9184L664.767 43.9092L663.346 43.4278ZM663.343 43.4369L661.919 42.9624C661.862 43.1357 661.789 43.346 661.748 43.5359L663.216 43.8491L664.683 44.1623C664.678 44.1868 664.676 44.1896 664.691 44.1406C664.706 44.0913 664.729 44.0248 664.766 43.9114L663.343 43.4369ZM664.608 45.781L664.775 44.2898C664.714 44.2829 664.67 44.2232 664.683 44.1623L663.216 43.8491L661.748 43.5359C661.365 45.3317 662.616 47.0679 664.441 47.2722L664.608 45.781ZM674.616 43.4276L673.192 43.9021C673.231 44.0186 673.254 44.0872 673.27 44.1381C673.286 44.1887 673.284 44.1866 673.278 44.1624L674.746 43.8492L676.213 43.5361C676.173 43.3448 676.099 43.1322 676.039 42.9531L674.616 43.4276ZM672.913 45.7904L672.913 47.291L672.948 47.291L672.948 45.7904L672.949 44.2899L672.913 44.2899L672.913 45.7904ZM672.948 45.7904L672.948 47.291C672.97 47.291 672.992 47.291 673.013 47.291L673.012 45.7904L673.011 44.2899C672.992 44.2899 672.971 44.2899 672.949 44.2899L672.948 45.7904ZM673.012 45.7904L673.013 47.291C673.155 47.2909 673.345 47.292 673.522 47.2722L673.355 45.781L673.188 44.2898C673.212 44.287 673.218 44.2879 673.184 44.2887C673.149 44.2896 673.099 44.2898 673.011 44.2899L673.012 45.7904ZM674.746 43.8492L673.278 44.1624C673.292 44.2246 673.248 44.283 673.188 44.2898L673.355 45.781L673.522 47.2722C675.348 47.0677 676.596 45.3306 676.213 43.5361L674.746 43.8492ZM674.616 43.4276L676.039 42.9531C675.964 42.7266 675.903 42.5418 675.831 42.3699L674.447 42.9478L673.062 43.5257C673.081 43.572 673.103 43.6341 673.192 43.9021L674.616 43.4276ZM671.21 40.9739V42.4744C671.495 42.4744 671.56 42.4754 671.609 42.479L671.719 40.9825L671.83 39.4861C671.643 39.4723 671.447 39.4733 671.21 39.4733V40.9739ZM674.447 42.9478L675.831 42.3699C675.147 40.731 673.6 39.6166 671.83 39.4861L671.719 40.9825L671.609 42.479C672.252 42.5264 672.814 42.9311 673.062 43.5257L674.447 42.9478ZM683.431 50.9231H681.93V59.924H683.431H684.931V50.9231H683.431ZM678.298 65.0567V63.5561H659.664V65.0567V66.5572H678.298V65.0567ZM683.432 36.9641V38.4647H695.474V36.9641V35.4636H683.432V36.9641ZM689.455 42.9845H690.955V30.9431H689.455H687.954V42.9845H689.455Z" fill="white"/>
</g>
<defs>
<filter id="filter0_d_368_20212" x="0" y="0" width="758" height="110" filterUnits="userSpaceOnUse" color-interpolation-filters="sRGB">
<feFlood flood-opacity="0" result="BackgroundImageFix"/>
<feColorMatrix in="SourceAlpha" type="matrix" values="0 0 0 0 0 0 0 0 0 0 0 0 0 0 0 0 0 0 127 0" result="hardAlpha"/>
<feMorphology radius="5" operator="dilate" in="SourceAlpha" result="effect1_dropShadow_368_20212"/>
<feOffset dx="5" dy="4"/>
<feGaussianBlur stdDeviation="5"/>
<feComposite in2="hardAlpha" operator="out"/>
<feColorMatrix type="matrix" values="0 0 0 0 0 0 0 0 0 0 0 0 0 0 0 0 0 0 0.05 0"/>
<feBlend mode="normal" in2="BackgroundImageFix" result="effect1_dropShadow_368_20212"/>
<feBlend mode="normal" in="SourceGraphic" in2="effect1_dropShadow_368_20212" result="shape"/>
</filter>
</defs>
</svg>
